<svg width="634" height="346" fill="none" xmlns="http://www.w3.org/2000/svg">
  <path d="M0 10C0 4.477 4.477 0 10 0h614c5.523 0 10 4.477 10 10v326c0 5.523-4.477 10-10 10H10c-5.523 0-10-4.477-10-10V10z" fill="#181B19"/>
  <rect x="36" y="83" width="561" height="234" rx="19" fill="#262927"/>
  <mask id="a" maskUnits="userSpaceOnUse" x="66" y="104" width="503" height="192">
    <path d="M161.434 120h310.431m-229.757 80c0 44.183-35.841 80-80.054 80S82 244.183 82 200s35.841-80 80.054-80 80.054 35.817 80.054 80zm310.432 0c0 44.183-35.841 80-80.054 80s-80.054-35.817-80.054-80 35.841-80 80.054-80 80.054 35.817 80.054 80z" stroke="#27DD7C" stroke-width="31" stroke-dasharray="503" stroke-dashoffset="0">
      <animate attributeName="stroke-dashoffset" to="503" begin="1s" dur="1s"/>
      <animate attributeName="stroke" to="#0" begin="1s" dur="1s"/>

      <animate attributeName="stroke-dashoffset" from="503" to="0" begin="2s" dur="3s" />
      <animate attributeName="stroke" from="#000" to="#27DD7C" begin="2s" dur="3s"/>

    </path>
  </mask>
  <g mask="url(#a)">
    <path fill="url(#paint0_linear)" d="M64 102h507v196H64z"/>
  </g>
  <path d="M0 10C0 4.477 4.477 0 10 0h614c5.523 0 10 4.477 10 10v40H0V10z" fill="#262927"/>
  <rect x="189" y="6" width="256" height="38" rx="2" fill="#fff"/>
  <path stroke="#E6E8E6" d="M198 14.5h238M198 25.5h238M198 36.5h238"/>
  <path d="M261.207 18.61c-.443 0-.762-.098-.957-.294-.182-.195-.273-.54-.273-1.035 0-.494.091-.84.273-1.035.195-.195.514-.293.957-.293h6.914c.443 0 .755.098.938.293.195.195.293.54.293 1.035 0 .495-.098.84-.293 1.035-.183.196-.495.293-.938.293h-2.5l5.332 12.735 5.391-12.735h-1.699c-.443 0-.762-.097-.957-.293-.183-.195-.274-.54-.274-1.035 0-.494.091-.84.274-1.035.195-.195.514-.293.957-.293h6.132c.443 0 .756.098.938.293.195.195.293.54.293 1.035 0 .495-.098.84-.293 1.035-.182.196-.495.293-.938.293h-1.23l-6.309 14.551c-.182.443-.449.762-.8.957-.352.209-.853.313-1.504.313s-1.146-.105-1.485-.313c-.338-.208-.599-.527-.781-.957l-6.25-14.55h-1.211zm38.136 3.847a3.73 3.73 0 00-.352-1.621 3.392 3.392 0 00-1.054-1.27c-.456-.364-1.022-.644-1.7-.84-.677-.208-1.464-.312-2.363-.312-.95 0-1.829.163-2.637.488a6.03 6.03 0 00-2.05 1.367 6.354 6.354 0 00-1.348 2.09c-.325.795-.488 1.667-.488 2.618 0 .95.15 1.829.449 2.636a6.197 6.197 0 001.27 2.07 5.858 5.858 0 002.011 1.368c.781.325 1.647.488 2.598.488 1.198 0 2.357-.182 3.476-.547a10.295 10.295 0 003.086-1.62c.339-.261.658-.359.957-.294.3.065.586.326.86.781.221.352.312.716.273 1.094-.026.378-.228.703-.605.977-1.055.78-2.285 1.393-3.692 1.836a14.417 14.417 0 01-4.355.664c-1.432 0-2.728-.235-3.887-.703-1.159-.482-2.148-1.146-2.969-1.993a8.805 8.805 0 01-1.894-2.988c-.443-1.159-.664-2.415-.664-3.77 0-1.354.228-2.604.683-3.75a9.008 9.008 0 011.914-3.007 8.783 8.783 0 012.969-1.973c1.159-.482 2.442-.723 3.848-.723 1.185 0 2.259.215 3.223.645a6.591 6.591 0 012.441 1.797v-1.172c0-.456.104-.781.312-.977.222-.195.606-.293 1.153-.293s.924.098 1.133.293c.221.196.332.521.332.977v5.664c0 .456-.111.781-.332.977-.209.195-.586.293-1.133.293s-.931-.098-1.153-.293c-.208-.196-.312-.521-.312-.977zm12.394-3.848h-2.481c-.442 0-.761-.097-.957-.293-.182-.195-.273-.54-.273-1.035 0-.494.091-.84.273-1.035.196-.195.515-.293.957-.293h3.985c.442 0 .755.098.937.293.195.195.293.54.293 1.035v3.946a13.604 13.604 0 011.641-2.364 11.627 11.627 0 011.992-1.797 8.754 8.754 0 012.187-1.132 6.569 6.569 0 012.246-.41 5.53 5.53 0 012.852.78c.378.222.619.495.723.821.104.326.065.73-.117 1.21-.183.47-.417.802-.704.997-.273.195-.599.182-.976-.039a4.257 4.257 0 00-2.051-.527c-.586 0-1.185.11-1.797.332a7.489 7.489 0 00-1.758.898c-.56.378-1.087.84-1.582 1.387a10.586 10.586 0 00-1.289 1.777 9.542 9.542 0 00-.859 2.09 8.5 8.5 0 00-.313 2.305v3.789h6.582c.443 0 .756.097.938.293.195.195.293.54.293 1.035 0 .495-.098.84-.293 1.035-.182.195-.495.293-.938.293H308.67c-.442 0-.761-.098-.957-.293-.182-.195-.273-.54-.273-1.035 0-.495.091-.84.273-1.035.196-.196.515-.293.957-.293h3.067V18.609zm19.561 0h-1.601c-.443 0-.762-.097-.957-.293-.182-.195-.274-.54-.274-1.035 0-.494.092-.84.274-1.035.195-.195.514-.293.957-.293h3.105c.443 0 .756.098.938.293.195.195.293.54.293 1.035v1.563c.807-1.055 1.745-1.869 2.812-2.442 1.081-.586 2.272-.879 3.575-.879 1.21 0 2.33.209 3.359.625a7.4 7.4 0 012.656 1.758c.755.768 1.348 1.706 1.778 2.813.429 1.107.644 2.363.644 3.77 0 1.405-.215 2.662-.644 3.769-.43 1.107-1.023 2.044-1.778 2.812a7.62 7.62 0 01-2.656 1.778c-1.029.403-2.149.605-3.359.605-1.303 0-2.468-.26-3.497-.781-1.015-.534-1.914-1.29-2.695-2.266v8.614h4.336c.443 0 .755.097.938.292.195.196.293.54.293 1.036 0 .494-.098.84-.293 1.035-.183.195-.495.293-.938.293h-9.453c-.443 0-.762-.098-.957-.293-.182-.196-.274-.54-.274-1.035 0-.495.092-.84.274-1.035.195-.196.514-.294.957-.294h2.187V18.61zm2.93 5.88c0 .963.15 1.822.449 2.577.3.756.716 1.394 1.25 1.915a5.536 5.536 0 001.895 1.171c.742.274 1.543.41 2.402.41.886 0 1.673-.15 2.364-.449.69-.3 1.269-.716 1.738-1.25a5.696 5.696 0 001.074-1.933 7.692 7.692 0 00.371-2.442c0-.885-.124-1.699-.371-2.441a5.485 5.485 0 00-1.074-1.914 4.738 4.738 0 00-1.738-1.27c-.691-.3-1.478-.449-2.364-.449-.859 0-1.66.137-2.402.41a5.391 5.391 0 00-1.895 1.192c-.534.507-.95 1.139-1.25 1.894-.299.755-.449 1.615-.449 2.578zm37.687-8.536c.443 0 .755.098.937.293.196.195.293.54.293 1.035 0 .495-.097.84-.293 1.035-.182.196-.494.293-.937.293h-1.211l-7.988 16.368c-.625 1.276-1.237 2.356-1.836 3.242-.599.885-1.244 1.608-1.934 2.168s-1.452.97-2.285 1.23c-.82.274-1.764.43-2.832.469-.378.013-.697-.072-.957-.254-.248-.182-.397-.534-.449-1.055-.052-.573.013-.983.195-1.23.195-.247.469-.384.82-.41.899-.052 1.66-.176 2.285-.371a4.375 4.375 0 001.739-.977c.521-.469 1.028-1.12 1.523-1.953.508-.82 1.087-1.888 1.738-3.203l-7.148-14.024h-1.23c-.443 0-.762-.097-.958-.293-.182-.195-.273-.54-.273-1.035 0-.494.091-.84.273-1.035.196-.195.515-.293.958-.293h6.914c.442 0 .755.098.937.293.195.195.293.54.293 1.035 0 .495-.098.84-.293 1.035-.182.196-.495.293-.937.293h-2.5l5.507 10.977 5.254-10.977h-1.738c-.443 0-.762-.097-.957-.293-.182-.195-.273-.54-.273-1.035 0-.494.091-.84.273-1.035.195-.195.514-.293.957-.293h6.133z" fill="#262927"/>
  <defs>
    <linearGradient id="paint0_linear" x1="64" y1="298" x2="544.524" y2="50.579" gradientUnits="userSpaceOnUse">
      <stop stop-color="#27DD70"/>
      <stop offset="1" stop-color="#27DDA6"/>
    </linearGradient>
  </defs>
</svg>